REM MD5 3b3bac065d943b5ed7d678b432f661e7
FILE "Hunter, The (Europe).bin" BINARY
  TRACK 01 MODE2/2352
    INDEX 01 00:00:00
  TRACK 02 AUDIO
    INDEX 00 00:51:45
    INDEX 01 00:53:45
  TRACK 03 AUDIO
    INDEX 00 02:21:24
    INDEX 01 02:23:24
  TRACK 04 AUDIO
    INDEX 00 03:54:70
    INDEX 01 03:56:70
  TRACK 05 AUDIO
    INDEX 00 05:24:49
    INDEX 01 05:26:49
REM LEADOUT 10:40:13
